<?xml version="1.0" encoding="UTF-8"?>
<svg id="Layer_2" data-name="Layer 2" xmlns="http://www.w3.org/2000/svg" width="28.41" height="28.41" viewBox="0 0 28.41 28.41">
  <defs>
    <style>
      .cls-1 {
        fill: rgba(35, 31, 32, .85);
      }

      .cls-1, .cls-2, .cls-3 {
        stroke-width: 0px;
      }

      .cls-2 {
        fill: rgba(35, 31, 32, 0);
      }

      .cls-4 {
        fill: none;
        stroke: #d4b374;
        stroke-miterlimit: 10;
      }

      .cls-3 {
        fill: #fff;
      }
    </style>
  </defs>
  <g id="Layer_2-2" data-name="Layer 2">
    <g>
      <path class="cls-4" d="m14.21,27.91C6.65,27.91.5,21.76.5,14.21S6.65.5,14.21.5s13.71,6.15,13.71,13.71-6.15,13.71-13.71,13.71Z"/>
      <circle class="cls-3" cx="14.21" cy="14.21" r="12.12"/>
      <g>
        <rect class="cls-2" x="7.94" y="6.24" width="12.53" height="15.94"/>
        <path class="cls-1" d="m17.09,9.88c-1.14,0-2.07.69-2.66.69-.63,0-1.46-.65-2.45-.65-1.88,0-3.79,1.56-3.79,4.49,0,1.83.7,3.76,1.58,5.01.75,1.05,1.4,1.92,2.35,1.92s1.34-.62,2.5-.62,1.44.6,2.47.6,1.7-.94,2.35-1.86c.72-1.06,1.02-2.09,1.03-2.14-.06-.02-2.01-.82-2.01-3.05,0-1.94,1.53-2.81,1.63-2.88-1.01-1.46-2.56-1.5-2.99-1.5Zm-.53-1.24c.47-.56.79-1.34.79-2.11,0-.11,0-.21-.02-.3-.76.03-1.68.5-2.22,1.14-.43.49-.83,1.27-.83,2.05,0,.12.02.24.03.27.05,0,.12.02.21.02.68,0,1.53-.46,2.05-1.08Z"/>
      </g>
    </g>
  </g>
</svg>