<?xml version="1.0" encoding="UTF-8"?>
<svg id="Layer_2" data-name="Layer 2" xmlns="http://www.w3.org/2000/svg" width="22.49" height="16.08" viewBox="0 0 22.49 16.08">
  <defs>
    <style>
      .cls-1 {
        fill: rgba(212, 179, 116, .85);
      }

      .cls-1, .cls-2 {
        stroke-width: 0px;
      }

      .cls-2 {
        fill: rgba(212, 179, 116, 0);
      }
    </style>
  </defs>
  <g id="Layer_2-2" data-name="Layer 2">
    <g>
      <rect class="cls-2" width="22.49" height="16.08"/>
      <path class="cls-1" d="m2.93,16.08h16.92c1.67,0,2.65-.97,2.65-2.89V2.9C22.49.98,21.5,0,19.56,0H2.65C.98,0,0,.98,0,2.9v10.29c0,1.92.99,2.89,2.93,2.89Zm-.06-1.43c-.92,0-1.44-.51-1.44-1.47V2.89c0-.95.52-1.45,1.44-1.45h16.74c.92,0,1.45.5,1.45,1.46v10.29c0,.95-.53,1.46-1.45,1.46H2.87Zm8.37-4.16c.6,0,1.17-.22,1.71-.71L21.72,1.89l-.97-.98-8.61,7.76c-.29.26-.59.38-.89.38s-.61-.12-.89-.38L1.73.91l-.97.98,8.77,7.89c.53.48,1.11.71,1.71.71ZM1.87,14.88l6.62-6.63-.97-.97L.9,13.91l.97.98Zm18.75,0l.97-.98-6.63-6.63-.98.97,6.64,6.64Z"/>
    </g>
  </g>
</svg>