<?xml version="1.0" encoding="UTF-8"?>
<svg id="Layer_2" data-name="Layer 2" xmlns="http://www.w3.org/2000/svg" width="19.74" height="19.75" viewBox="0 0 19.74 19.75">
  <defs>
    <style>
      .cls-1 {
        fill: rgba(212, 179, 116, .85);
      }

      .cls-1, .cls-2 {
        stroke-width: 0px;
      }

      .cls-2 {
        fill: rgba(212, 179, 116, 0);
      }
    </style>
  </defs>
  <g id="Layer_2-2" data-name="Layer 2">
    <g>
      <rect class="cls-2" width="19.74" height="19.75"/>
      <path class="cls-1" d="m9.87,19.2c2.69,0,4.89-3.98,4.89-9.31S12.57.55,9.87.55s-4.89,3.98-4.89,9.34,2.2,9.31,4.89,9.31Zm0-17.47c1.9,0,3.59,3.77,3.59,8.17s-1.69,8.13-3.59,8.13-3.59-3.81-3.59-8.13S7.97,1.72,9.87,1.72Zm-.63-1.04v18.33h1.27V.69h-1.27Zm.63,12.82c-2.98,0-5.62.78-6.98,2.03l.98.8c1.28-1.02,3.36-1.57,6-1.57s4.72.55,6,1.57l.98-.8c-1.35-1.25-4-2.03-6.98-2.03Zm8.93-4.28H.94v1.27h17.86v-1.27Zm-8.93-2.95c2.98,0,5.62-.78,6.98-2.03l-.98-.8c-1.28,1.01-3.36,1.57-6,1.57s-4.72-.56-6-1.57l-.98.8c1.35,1.25,4,2.03,6.98,2.03Zm0,13.46c5.4,0,9.87-4.48,9.87-9.87S15.26,0,9.86,0,0,4.47,0,9.87s4.48,9.87,9.87,9.87Zm0-1.32c-4.67,0-8.55-3.88-8.55-8.55S5.19,1.32,9.86,1.32s8.56,3.88,8.56,8.55-3.88,8.55-8.55,8.55Z"/>
    </g>
  </g>
</svg>