<?xml version="1.0" encoding="UTF-8"?>
<svg id="Layer_2" data-name="Layer 2" xmlns="http://www.w3.org/2000/svg" width="22.25" height="22.27" viewBox="0 0 22.25 22.27">
  <defs>
    <style>
      .cls-1 {
        fill: rgba(212, 179, 116, .85);
      }

      .cls-1, .cls-2 {
        stroke-width: 0px;
      }

      .cls-2 {
        fill: rgba(212, 179, 116, 0);
      }
    </style>
  </defs>
  <g id="Layer_2-2" data-name="Layer 2">
    <g>
      <rect class="cls-2" width="22.25" height="22.27"/>
      <path class="cls-1" d="m11.13,22.25c6.09,0,11.13-5.05,11.13-11.13S17.2,0,11.12,0,0,5.04,0,11.13s5.05,11.13,11.13,11.13Zm0-1.85c-5.15,0-9.26-4.12-9.26-9.27S5.97,1.85,11.12,1.85s9.28,4.12,9.28,9.27-4.12,9.27-9.27,9.27Z"/>
      <path class="cls-1" d="m8.85,6.57c0,1.04.7,1.92,1.66,2.19v3.7c0,1.71.29,2.69.61,2.69s.62-.96.62-2.69v-3.7c.95-.27,1.65-1.16,1.65-2.19,0-1.25-1-2.27-2.27-2.27s-2.27,1.01-2.27,2.27Zm1.64.1c-.37,0-.73-.33-.73-.73s.36-.73.73-.73c.41,0,.74.33.74.73s-.33.73-.74.73Zm.63,10.63c3.55,0,5.63-1.24,5.63-2.59,0-1.64-2.6-2.59-4.23-2.57v1c1.13-.01,2.91.6,2.91,1.43,0,.96-1.8,1.66-4.31,1.66s-4.3-.7-4.3-1.66c0-.83,1.77-1.44,2.9-1.43v-1c-1.64-.01-4.23.94-4.23,2.57,0,1.34,2.08,2.59,5.63,2.59Z"/>
    </g>
  </g>
</svg>