<?xml version="1.0" encoding="UTF-8"?><svg id="b" xmlns="http://www.w3.org/2000/svg" viewBox="0 0 69 57.93"><g id="c"><g id="d"><path d="M14.49,49.41c-.21-.19-.41-.38-.61-.57-11.3-10.87-11.64-28.84-.78-40.13,10.87-11.3,28.84-11.64,40.13-.78.2.19.4.39.59.59C42.51-1.76,24.99-1.23,14.31,9.86c-10.67,11.09-10.53,28.63.18,39.54Z" fill="#d18b2f"/><path d="M55.22,49.22c-10.87,11.3-28.84,11.64-40.13.78-.2-.19-.4-.39-.59-.59,11.32,10.28,28.85,9.75,39.52-1.35s10.53-28.62-.18-39.54c.21.19.41.38.61.57,11.3,10.87,11.64,28.84.78,40.13Z" fill="#d18b2f"/><path d="M28.99,57.92c-.28,0-.56.01-.84.01-14.18,0-25.94-10.34-28.15-23.89.97,2.58,2.28,5,3.87,7.21,4.39,9.6,13.95,16.35,25.12,16.67Z" fill="#d18b2f"/><path d="M69,34.04c-2.21,13.55-13.97,23.89-28.14,23.89-.28,0-.56,0-.84-.01,11.17-.32,20.72-7.07,25.11-16.67,1.59-2.2,2.9-4.62,3.87-7.21Z" fill="#d18b2f"/></g></g></svg>